<svg width="82" height="61" viewBox="0 0 82 61" fill="none" xmlns="http://www.w3.org/2000/svg">
<g opacity="0.3" clip-path="url(#clip0_23_19527)">
<path d="M6.60366 0.169571C6.60366 0.511272 8.13267 1.80613 9.51776 2.63341C11.1907 3.64052 14.5365 5.11522 17.0728 5.96048C18.7817 6.53598 19.1055 6.76977 18.8537 7.18341C18.7637 7.32728 18.314 7.29131 17.2167 7.02155C13.2233 6.08637 5.6323 3.60455 2.73618 2.32767C1.13522 1.60831 -0.052002 1.28459 -0.052002 1.57234C-0.052002 1.91404 0.793447 2.88519 1.6389 3.51463C2.89808 4.44981 6.35183 6.10435 9.39185 7.20139C10.7769 7.72293 12.162 8.24447 12.4499 8.38835C12.9895 8.64013 12.9895 8.64013 12.5398 8.64013C11.4425 8.67609 7.82687 8.04665 5.74022 7.45317C0.523623 5.99645 0.127881 5.92451 0.127881 6.3921C0.127881 6.76977 1.44103 7.86681 2.59228 8.4423C3.7795 9.03578 5.97407 9.84507 8.22261 10.5285C9.08605 10.7802 10.1833 11.2838 10.741 11.6615C11.8742 12.4348 13.691 13.2081 15.1301 13.5498C15.6877 13.6757 16.1375 13.8376 16.1375 13.9095C16.1375 13.9994 15.6338 14.0534 15.0222 14.0534C13.9429 14.0534 11.2986 14.3051 10.0754 14.503C9.33788 14.6289 9.3019 15.0605 9.94948 15.8338C10.669 16.6791 12.162 17.4344 14.4825 18.1178C14.6624 18.1717 14.6444 18.2797 14.4286 18.6213C14.1947 18.981 14.1767 19.1429 14.3386 19.4486C14.5545 19.8623 15.8496 20.4917 17.2707 20.8874C17.8463 21.0492 18.1162 21.2111 18.1162 21.4269C18.1162 21.5887 18.296 21.8945 18.5299 22.1103C18.9436 22.4879 21.1022 23.585 21.462 23.585C21.5879 23.585 21.8038 23.7828 21.9657 24.0346C22.3074 24.5741 23.2428 24.8439 24.7358 24.8439C25.3475 24.8439 25.8511 24.9158 25.8511 25.0237C25.8511 25.1136 25.977 25.2036 26.1209 25.2036C26.2649 25.2036 26.5527 25.3654 26.7685 25.5812C27.0923 25.9049 27.2722 25.9409 27.9018 25.851C30.0424 25.5093 30.0424 25.5093 30.4381 26.1387C30.8878 26.8581 31.6434 27.002 32.7946 26.5524L33.5681 26.2646L34.2337 26.9121C34.8453 27.5415 34.9352 27.5595 35.7267 27.4696C37.1478 27.2717 37.4176 27.2897 38.389 27.7034C39.0365 27.9911 39.3783 28.2609 39.5222 28.6385C39.6481 28.9083 39.918 29.1961 40.1338 29.268C40.3317 29.3399 40.7454 29.5737 41.0152 29.8075C41.6628 30.347 41.9326 30.347 42.2924 29.7895C42.7961 29.0162 43.2098 29.214 43.5696 30.365C43.8394 31.2642 44.1272 31.6419 45.4943 33.0087C47.0233 34.5553 47.0953 34.6453 46.9874 35.2567C46.9334 35.6344 47.0053 36.2818 47.1493 36.7854C47.4371 37.7565 47.3831 37.9903 46.6456 38.6737C46.0879 39.1953 46.07 39.501 46.5376 40.2204C46.7355 40.5261 46.8974 41.0656 46.8974 41.4433C46.8974 42.3245 47.2932 43.2417 47.8148 43.6194C48.4264 44.033 48.6063 43.9791 48.6423 43.3136C48.6962 42.5763 49.2539 42.1087 50.1353 42.1087C51.0167 42.1087 51.4484 42.5943 51.4664 43.5834L51.4844 44.3387L49.7755 45.3998C48.8401 45.9573 46.7175 47.1083 45.0626 47.9176C43.0119 48.9247 42.0586 49.4822 42.0586 49.698C42.0406 50.1117 42.3284 50.2555 42.7601 50.0217C43.0479 49.8779 43.1918 49.9138 43.4976 50.2196C43.8754 50.5972 44.7388 50.6332 45.5303 50.2915C45.8721 50.1476 45.8721 50.1476 45.5843 50.5613C45.4224 50.8131 45.2785 51.1907 45.2785 51.4065C45.2785 51.7482 45.3684 51.8202 45.8001 51.8202C46.1779 51.8202 46.3398 51.9281 46.4117 52.1978C46.5017 52.5395 46.6096 52.5755 47.1672 52.4676C47.527 52.3957 47.9227 52.3057 48.0487 52.2518C48.1746 52.1978 48.3725 52.3777 48.4804 52.6295C48.6423 52.9712 48.8222 53.0791 49.2719 53.0791C49.5957 53.0791 50.0274 53.2049 50.2252 53.3668C50.4771 53.5466 50.7829 53.6006 51.2686 53.5287C51.8982 53.4208 51.9341 53.4387 51.9341 53.8704C51.9341 54.3739 52.5277 54.8775 53.1393 54.8775C53.3552 54.8775 53.5891 54.9494 53.643 55.0573C53.697 55.1472 53.9488 55.2372 54.2007 55.2372C54.8482 55.2372 54.7403 55.471 53.625 56.3162C51.6643 57.8449 51.5024 58.4383 52.6896 59.8951C53.1034 60.3986 53.5711 60.8482 53.7509 60.9022C54.1467 61.0281 55.154 60.5425 55.2979 60.1648C55.4418 59.8051 55.208 59.6253 54.9562 59.8771C54.6863 60.1468 53.7869 60.1648 53.643 59.9131C53.4092 59.5354 54.8302 57.7549 55.3699 57.7549C55.5498 57.7549 55.8556 58.0427 56.0714 58.3844C56.2873 58.7261 56.5391 59.0138 56.6291 59.0138C56.9529 59.0138 57.0068 58.4923 56.737 57.9348C56.4672 57.3953 56.4672 57.3953 56.9349 57.3953C57.7803 57.3953 57.9962 57.647 57.7443 58.3125C57.4565 59.0858 57.5645 59.1577 58.1221 58.6002C58.7157 58.0067 58.7157 57.5391 58.1221 56.7478L57.6544 56.1364H58.6977C59.2913 56.1364 59.885 56.0464 60.0289 55.9565C60.2267 55.8306 60.3167 55.8846 60.3886 56.1903C60.4426 56.4061 60.7304 56.7119 61.0182 56.8557C61.288 56.9996 61.6838 57.2694 61.8637 57.4492C62.2774 57.8449 62.7991 57.8629 62.6551 57.4672C62.5652 57.2154 62.6372 57.1974 63.2128 57.2874C64.6698 57.5212 64.6159 57.5391 64.6698 56.7658C64.7058 56.3702 64.8317 55.9385 64.9397 55.7947C65.1195 55.5968 65.1915 55.7407 65.3534 56.604L65.5513 57.665L65.8031 57.0895C66.0549 56.568 66.0909 56.55 66.5046 56.7838C66.7565 56.9097 67.2242 57.0176 67.548 57.0356C68.0876 57.0356 68.1236 57.0715 67.9437 57.3953C67.8358 57.5931 67.494 57.8808 67.1702 58.0067L66.5946 58.2585L67.1342 58.2765C67.8538 58.2945 68.8071 57.701 69.077 57.0715C69.2748 56.586 69.3108 56.568 69.8325 56.7838C70.1383 56.9097 70.8038 57.0176 71.3075 57.0356C72.1709 57.0356 72.2609 56.9996 72.3688 56.586C72.4228 56.3342 72.6027 56.1364 72.7825 56.1364C72.9444 56.1364 73.3762 56.0464 73.7539 55.9385C74.2396 55.8127 74.4195 55.6688 74.4195 55.399C74.4195 55.1113 74.5274 55.0573 75.0311 55.0933C75.3729 55.1113 75.7686 55.0393 75.9125 54.9134C76.1104 54.7336 76.2183 54.7516 76.3982 54.9674C76.722 55.3451 77.2976 55.3091 77.2976 54.9134C77.2976 54.7336 77.0098 54.248 76.65 53.8344C76.3083 53.4208 76.0924 53.0791 76.2003 53.0791C76.2903 53.0791 76.4342 53.151 76.4881 53.2589C76.6141 53.4567 77.8193 53.5107 78.269 53.3308C78.9885 53.0611 78.5208 52.5755 76.3262 51.3166C73.3042 49.6081 67.2781 45.7955 65.6052 44.5546C64.5439 43.7632 64.1122 43.2957 63.5905 42.3605C62.817 41.0117 62.7631 40.616 63.2847 40.2563C63.4826 40.1125 63.7704 39.6808 63.8963 39.2852C64.0942 38.7277 64.2201 38.6198 64.5619 38.6557C64.7958 38.6917 65.1915 38.7097 65.4613 38.7097C65.7132 38.7097 66.0369 38.8356 66.1629 38.9795C66.3427 39.2132 66.4147 39.2132 66.7025 38.9435C67.2062 38.4939 67.6019 38.6557 68.0696 39.5549C68.0876 39.5909 68.3394 39.483 68.6273 39.3032C69.8684 38.5838 69.6886 37.4868 68.1236 36.1559C66.6306 34.897 66.3967 34.0878 67.7998 35.0589C68.2315 35.3466 69.1489 35.8682 69.8505 36.2279C70.534 36.5696 71.2176 37.0012 71.3615 37.1631C71.4874 37.3249 71.8472 37.5767 72.117 37.7206C72.7466 38.0443 73.2323 37.7745 73.0524 37.217C72.9804 36.9832 73.0704 36.7494 73.3222 36.5156C73.7719 36.102 73.8259 35.0769 73.4301 34.7352C72.8725 34.2676 73.1243 34.0518 74.3295 33.9798C74.9771 33.9439 75.5887 33.818 75.7146 33.6921C76.0204 33.3864 76.1464 30.9945 75.8765 30.7247C75.4988 30.347 75.6427 29.7176 76.1464 29.5917C76.5961 29.4838 76.6141 29.4298 76.5061 28.6745C76.3982 27.9192 76.4342 27.8652 77.0458 27.5055C77.6754 27.1279 77.6934 27.0919 77.6214 26.2466L77.5315 25.3834H78.197C79.2044 25.3834 79.5282 25.0417 79.4922 24.0706C79.4562 23.3872 79.5102 23.2073 79.9239 22.8836C80.4995 22.434 80.9312 22.398 81.5249 22.7937C81.9746 23.0814 81.9925 23.0634 82.856 22.2721C83.6655 21.4988 83.7554 21.4629 84.5469 21.5528C85.1945 21.6247 85.4823 21.5708 85.896 21.283C86.1838 21.0672 86.7954 20.8154 87.2631 20.7075C88.4683 20.4378 89.4757 19.8982 90.447 18.981C90.9147 18.5674 91.9221 17.884 92.6956 17.5063C93.613 17.0387 94.4584 16.4273 95.106 15.7798C95.7716 15.0964 96.3472 14.6828 96.9228 14.503C97.3905 14.3411 98.0921 13.9814 98.4878 13.6937C98.8835 13.4059 99.6031 12.9743 100.089 12.7225C100.592 12.4887 101.114 12.0751 101.294 11.8233C101.51 11.4636 101.744 11.3557 102.211 11.3557C103.632 11.3557 106.277 9.84507 106.025 9.16167C105.935 8.8919 105.863 8.90989 104.298 9.28756C103.668 9.44941 103.129 9.53933 103.093 9.50336C103.039 9.4674 103.722 9.19764 104.586 8.92787C106.457 8.31641 110.324 6.42807 110.468 6.03242C110.594 5.69072 110.18 5.52886 109.389 5.65475C108.633 5.78064 108.723 5.56483 109.677 5.04329C111.044 4.26997 110.774 3.58657 109.353 4.25198C108.849 4.48578 108.417 4.61167 108.417 4.52175C108.417 4.41384 108.489 4.3419 108.579 4.3419C108.867 4.3419 109.677 3.38874 109.677 3.06503C109.677 2.5255 109.101 2.65139 107.932 3.42471C107.302 3.85633 106.277 4.32392 105.359 4.5757C103.704 5.06127 101.258 5.51088 101.114 5.367C101.06 5.31305 101.402 5.15119 101.87 4.98933C103.021 4.59368 104.064 3.96424 104.802 3.19091C105.323 2.65139 105.377 2.54348 105.107 2.43558C104.928 2.36364 104.172 2.56147 103.327 2.90317C98.9195 4.64764 90.1592 6.17629 82.784 6.50001C80.7154 6.58993 78.6108 6.76977 78.1071 6.87767C77.6214 6.98558 76.3083 7.05752 75.211 7.05752C72.2789 7.00356 70.516 7.61502 65.7851 10.3306C64.7418 10.9241 63.7165 11.5715 63.5006 11.7694C62.7631 12.4348 62.0435 14.7368 60.9283 20.15C60.4966 22.2721 59.813 24.8079 59.2194 26.5704L58.23 29.4838L56.9169 30.8326C54.9202 32.8828 53.661 33.3684 52.8156 32.4692C52.4558 32.0735 52.3658 31.7678 52.2759 30.4909C52.204 29.304 52.114 28.9083 51.8082 28.5846C51.3045 28.0631 49.8475 24.9518 49.7036 24.1065C49.6496 23.7648 49.3978 23.1893 49.1459 22.8656C48.8941 22.5239 48.6962 22.1103 48.6962 21.9304C48.6962 21.4988 48.2645 20.6715 47.8868 20.3478C47.7429 20.2219 47.2392 19.4127 46.8075 18.5674C45.6562 16.3374 44.0553 14.2872 42.904 13.5498C39.7741 11.5536 33.1544 8.74803 28.9091 7.61502C25.0776 6.58993 11.1727 1.75218 8.60036 0.565224C7.48509 0.0436821 6.60366 -0.136158 6.60366 0.169571Z" fill="#C49E85"/>
</g>
<defs>
<clipPath id="clip0_23_19527">
<rect width="111" height="61" fill="white"/>
</clipPath>
</defs>
</svg>
