<svg width="53" height="21" viewBox="0 0 53 21" fill="none" xmlns="http://www.w3.org/2000/svg">
<path d="M5.78601 20.79C4.93534 20.79 3.97468 20.7167 2.90401 20.57C2.31734 20.4967 1.91401 20.3427 1.69401 20.108C1.47401 19.8733 1.37868 19.492 1.40801 18.964C1.51068 17.512 1.75268 15.7227 2.13401 13.596C2.51534 11.4547 2.97734 9.39399 3.52001 7.41399C3.62268 7.04733 3.82801 6.79066 4.13601 6.64399C4.44401 6.49733 4.84734 6.42399 5.34601 6.42399C6.24068 6.42399 6.68801 6.67333 6.68801 7.17199C6.68801 7.37733 6.64401 7.61199 6.55601 7.87599C6.17468 9.04933 5.79334 10.626 5.41201 12.606C5.03068 14.5713 4.75934 16.4487 4.59801 18.238C5.03801 18.282 5.53668 18.304 6.09401 18.304C8.66068 18.304 10.5747 17.5267 11.836 15.972C13.112 14.4173 13.75 12.342 13.75 9.74599C13.75 8.00066 13.2513 6.65132 12.254 5.69799C11.2567 4.74466 9.84868 4.26799 8.03001 4.26799C6.85668 4.26799 5.69068 4.45133 4.53201 4.81799C3.38801 5.18466 2.35401 5.66866 1.43001 6.26999C1.23934 6.40199 1.03401 6.46799 0.81401 6.46799C0.564677 6.46799 0.366677 6.36533 0.22001 6.15999C0.0733432 5.93999 9.80496e-06 5.67599 9.80496e-06 5.36799C9.80496e-06 5.01599 0.0586765 4.72999 0.17601 4.50999C0.293343 4.27533 0.491343 4.06266 0.77001 3.87199C1.78201 3.18266 2.97001 2.66199 4.33401 2.30999C5.69801 1.94333 7.01068 1.75999 8.27201 1.75999C10.0613 1.75999 11.6087 2.07533 12.914 2.70599C14.2193 3.32199 15.224 4.23133 15.928 5.43399C16.632 6.63666 16.984 8.08866 16.984 9.78999C16.984 12.0047 16.544 13.9407 15.664 15.598C14.784 17.2407 13.5007 18.5167 11.814 19.426C10.1273 20.3353 8.11801 20.79 5.78601 20.79ZM20.7329 20.79C19.8236 20.79 19.0976 20.46 18.5549 19.8C18.0123 19.14 17.7409 18.2747 17.7409 17.204C17.7409 16.0307 18.0123 14.9233 18.5549 13.882C19.0976 12.826 19.8163 11.9827 20.7109 11.352C21.6203 10.7067 22.5809 10.384 23.5929 10.384C23.9156 10.384 24.1283 10.45 24.2309 10.582C24.3483 10.6993 24.4436 10.9193 24.5169 11.242C24.8249 11.1833 25.1476 11.154 25.4849 11.154C26.2036 11.154 26.5629 11.4107 26.5629 11.924C26.5629 12.232 26.4529 12.9653 26.2329 14.124C25.8956 15.8107 25.7269 16.984 25.7269 17.644C25.7269 17.864 25.7783 18.04 25.8809 18.172C25.9983 18.304 26.1449 18.37 26.3209 18.37C26.5996 18.37 26.9369 18.194 27.3329 17.842C27.7289 17.4753 28.2643 16.8887 28.9389 16.082C29.1149 15.8767 29.3129 15.774 29.5329 15.774C29.7236 15.774 29.8703 15.862 29.9729 16.038C30.0903 16.214 30.1489 16.456 30.1489 16.764C30.1489 17.3507 30.0096 17.8053 29.7309 18.128C29.1296 18.876 28.4916 19.5067 27.8169 20.02C27.1423 20.5333 26.4896 20.79 25.8589 20.79C25.3749 20.79 24.9276 20.6287 24.5169 20.306C24.1209 19.9687 23.8203 19.514 23.6149 18.942C22.8523 20.174 21.8916 20.79 20.7329 20.79ZM21.5249 18.568C21.8476 18.568 22.1556 18.3773 22.4489 17.996C22.7423 17.6147 22.9549 17.1087 23.0869 16.478L23.9009 12.43C23.2849 12.4447 22.7129 12.6793 22.1849 13.134C21.6716 13.574 21.2609 14.1607 20.9529 14.894C20.6449 15.6273 20.4909 16.4047 20.4909 17.226C20.4909 17.6807 20.5789 18.018 20.7549 18.238C20.9456 18.458 21.2023 18.568 21.5249 18.568ZM36.6989 15.774C36.8896 15.774 37.0363 15.862 37.1389 16.038C37.2563 16.214 37.3149 16.456 37.3149 16.764C37.3149 17.3507 37.1756 17.8053 36.8969 18.128C36.2663 18.9053 35.5769 19.5433 34.8289 20.042C34.0956 20.5407 33.2596 20.79 32.3209 20.79C31.0303 20.79 30.0696 20.2033 29.4389 19.03C28.8229 17.8567 28.5149 16.3387 28.5149 14.476C28.5149 12.6867 28.7423 10.648 29.1969 8.35999C29.6663 6.07199 30.3483 4.10666 31.2429 2.46399C32.1523 0.821325 33.2303 -8.58307e-06 34.4769 -8.58307e-06C35.1809 -8.58307e-06 35.7309 0.329992 36.1269 0.989992C36.5376 1.63533 36.7429 2.56666 36.7429 3.78399C36.7429 5.52933 36.2589 7.55333 35.2909 9.85599C34.3229 12.1587 33.0103 14.4393 31.3529 16.698C31.4556 17.2993 31.6243 17.732 31.8589 17.996C32.0936 18.2453 32.4016 18.37 32.7829 18.37C33.3843 18.37 33.9123 18.2013 34.3669 17.864C34.8216 17.512 35.4009 16.918 36.1049 16.082C36.2809 15.8767 36.4789 15.774 36.6989 15.774ZM33.9929 2.17799C33.6556 2.17799 33.2743 2.78666 32.8489 4.00399C32.4236 5.22133 32.0496 6.73199 31.7269 8.53599C31.4043 10.34 31.2283 12.0707 31.1989 13.728C32.2403 12.012 33.0689 10.296 33.6849 8.57999C34.3009 6.84933 34.6089 5.27266 34.6089 3.84999C34.6089 2.73533 34.4036 2.17799 33.9929 2.17799ZM45.3487 15.774C45.5394 15.774 45.686 15.862 45.7887 16.038C45.906 16.214 45.9647 16.456 45.9647 16.764C45.9647 17.3507 45.8254 17.8053 45.5467 18.128C45.004 18.788 44.234 19.3967 43.2367 19.954C42.254 20.5113 41.198 20.79 40.0687 20.79C38.5287 20.79 37.3334 20.372 36.4827 19.536C35.632 18.7 35.2067 17.556 35.2067 16.104C35.2067 15.092 35.4194 14.1533 35.8447 13.288C36.27 12.408 36.8567 11.7113 37.6047 11.198C38.3674 10.6847 39.2254 10.428 40.1787 10.428C41.0294 10.428 41.7114 10.6847 42.2247 11.198C42.738 11.6967 42.9947 12.3787 42.9947 13.244C42.9947 14.256 42.628 15.1287 41.8947 15.862C41.176 16.5807 39.9514 17.1527 38.2207 17.578C38.5874 18.2527 39.284 18.59 40.3107 18.59C40.9707 18.59 41.7187 18.3627 42.5547 17.908C43.4054 17.4387 44.1387 16.83 44.7547 16.082C44.9307 15.8767 45.1287 15.774 45.3487 15.774ZM39.8047 12.584C39.262 12.584 38.8 12.8993 38.4187 13.53C38.052 14.1607 37.8687 14.9233 37.8687 15.818V15.862C38.734 15.6567 39.416 15.3487 39.9147 14.938C40.4134 14.5273 40.6627 14.0507 40.6627 13.508C40.6627 13.2293 40.582 13.0093 40.4207 12.848C40.274 12.672 40.0687 12.584 39.8047 12.584ZM50.5314 17.578C50.6928 17.4313 50.8541 17.358 51.0154 17.358C51.1914 17.358 51.3308 17.4607 51.4334 17.666C51.5508 17.8567 51.6094 18.0913 51.6094 18.37C51.6094 18.986 51.3894 19.4773 50.9494 19.844C50.1868 20.4747 49.3214 20.79 48.3534 20.79C46.9601 20.79 45.9408 20.2107 45.2954 19.052C44.6501 17.8787 44.3274 16.3533 44.3274 14.476C44.3274 12.6867 44.5548 10.648 45.0094 8.35999C45.4788 6.07199 46.1608 4.10666 47.0554 2.46399C47.9648 0.821325 49.0428 -8.58307e-06 50.2894 -8.58307e-06C50.9934 -8.58307e-06 51.5434 0.329992 51.9394 0.989992C52.3501 1.63533 52.5554 2.56666 52.5554 3.78399C52.5554 5.52933 52.0714 7.55333 51.1034 9.85599C50.1501 12.1587 48.8448 14.432 47.1874 16.676C47.2901 17.2773 47.4734 17.71 47.7374 17.974C48.0014 18.238 48.3608 18.37 48.8154 18.37C49.0648 18.37 49.3434 18.2967 49.6514 18.15C49.9741 18.0033 50.2674 17.8127 50.5314 17.578ZM49.8054 2.17799C49.4681 2.17799 49.0868 2.78666 48.6614 4.00399C48.2361 5.22133 47.8621 6.73199 47.5394 8.53599C47.2168 10.34 47.0408 12.0707 47.0114 13.728C48.0528 12.012 48.8814 10.296 49.4974 8.57999C50.1134 6.84933 50.4214 5.27266 50.4214 3.84999C50.4214 2.73533 50.2161 2.17799 49.8054 2.17799Z" fill="#6B4B3E"/>
</svg>
